<?xml version="1.0" encoding="utf-8"?>
<!-- Svg Vector Icons : http://www.onlinewebfonts.com/icon -->
<!DOCTYPE svg PUBLIC "-//W3C//DTD SVG 1.1//EN" "http://www.w3.org/Graphics/SVG/1.1/DTD/svg11.dtd">
<svg version="1.1" xmlns="http://www.w3.org/2000/svg" xmlns:xlink="http://www.w3.org/1999/xlink" x="0px" y="0px" viewBox="0 0 1000 1000" enable-background="new 0 0 1000 1000" xml:space="preserve">
<metadata> Svg Vector Icons : http://www.onlinewebfonts.com/icon </metadata>
<g><g transform="translate(0.000000,511.000000) scale(0.100000,-0.100000)"><path d="M4607.3,4988.6C2538.5,4839.8,859.4,3498.4,299.7,1550.1C-80.6,220.5,89.5-1309.8,748.4-2450.5c854.9-1480.7,2404.1-2338,4227.3-2340.4c793.5-2.4,1520.9,163,2182.2,493.6c273.9,137,335.3,184.2,410.9,314.1c52,87.4,63.8,134.6,63.8,273.9c0,144.1-9.5,181.8-70.8,283.4c-44.9,70.8-115.7,141.7-186.6,186.6c-101.5,61.4-139.3,70.8-283.4,70.8c-153.5,0-188.9-11.8-415.6-120.4c-295.2-144.1-595.1-248-928.1-321.2c-210.2-47.2-309.4-54.3-772.3-54.3c-462.9,0-566.8,7.1-800.6,54.3C2644.8-3300.7,1596.2-2252.1,1286.8-721.8c-47.2,236.2-54.3,335.4-54.3,824.2c2.4,514.8,7.1,576.2,66.1,859.6C1612.7,2431,2668.4,3489,4127.9,3800.7c245.6,51.9,375.5,63.8,788.8,73.2c746.3,18.9,1296.5-61.4,1849.2-266.9c295.2-111,399.1-162.9,661.3-340.1c902.1-602.2,1350.9-1650.8,1350.9-3152.8c0-656.5-68.5-1058-219.6-1315.4c-108.7-181.9-219.6-231.4-512.5-231.4c-299.9,0-446.4,44.9-576.2,174.7c-196,193.7-188.9,132.3-203.1,1868.1l-11.8,1537.4l-61.4,115.7c-158.2,311.7-555,401.5-833.7,188.9l-101.6-75.6l-222,108.6c-545.6,266.9-1199.7,321.2-1856.3,155.9c-425.1-108.6-741.5-292.8-1069.8-623.5c-318.8-318.8-524.3-689.6-656.5-1180.8c-54.3-205.5-59-269.2-61.4-699c-2.4-377.8,7.1-512.5,42.5-673.1c177.1-810,642.4-1412.3,1353.2-1752.3c132.2-63.8,344.8-144.1,472.3-177.1c210.2-56.7,273.9-63.8,680.1-63.8c401.5-2.3,467.6,2.4,637.6,52c257.4,75.6,576.3,231.4,798.2,392c101.5,73.2,188.9,132.3,193.7,132.3c4.7,0,66.1-56.7,139.3-125.2c229.1-219.7,524.3-366.1,859.6-432.2c257.4-51.9,727.4-49.6,949.4,0c1006.1,236.2,1464.2,1239.9,1369.8,2996.9c-56.7,1022.6-288.1,1849.2-715.6,2531.7c-644.7,1036.8-1676.8,1676.8-3065.4,1901.1c-259.8,42.5-1006.1,99.2-1178.5,89.7C4895.4,5009.9,4751.3,5000.4,4607.3,4988.6z M5294.5,1578.4c335.4-87.4,614-299.9,748.6-573.9l77.9-158.2V78.8c0-765.2,0-767.5-56.7-885.6c-120.5-243.2-446.4-491.2-779.3-588.1c-73.2-21.2-212.5-37.8-318.8-37.8c-932.8,2.4-1530.3,680.1-1471.3,1660.2c9.5,132.3,33.1,304.7,54.3,380.2c129.9,486.5,512.5,873.8,961.2,970.6C4713.5,1623.3,5122.1,1623.3,5294.5,1578.4z"/></g></g>
</svg>